<svg width="16" height="16" viewBox="0 0 16 16" fill="none" xmlns="http://www.w3.org/2000/svg">
<path d="M0 4C0 1.79086 1.79086 0 4 0H12C14.2091 0 16 1.79086 16 4V12C16 14.2091 14.2091 16 12 16H4C1.79086 16 0 14.2091 0 12V4Z" fill="#EAE9F3"/>
<path fill-rule="evenodd" clip-rule="evenodd" d="M3.62167 7.78119C5.95383 6.76511 7.50897 6.09524 8.28709 5.77159C10.5088 4.84752 10.9704 4.687 11.2713 4.6817C11.3375 4.68053 11.4855 4.69693 11.5813 4.77471C11.6623 4.84038 11.6845 4.92909 11.6952 4.99136C11.7058 5.05362 11.7191 5.19546 11.7086 5.30629C11.5882 6.57128 11.0672 9.64107 10.8022 11.0579C10.69 11.6574 10.4692 11.8584 10.2555 11.8781C9.79089 11.9208 9.43811 11.571 8.98815 11.2761C8.28404 10.8145 7.88627 10.5272 7.20282 10.0768C6.41297 9.55633 6.92499 9.27026 7.37513 8.80273C7.49293 8.68038 9.53986 6.81854 9.57947 6.64964C9.58443 6.62852 9.58903 6.54978 9.54225 6.50821C9.49547 6.46663 9.42643 6.48085 9.37661 6.49215C9.30599 6.50818 8.18118 7.25164 6.00217 8.72253C5.68289 8.94177 5.3937 9.04859 5.1346 9.043C4.84896 9.03682 4.2995 8.88149 3.89103 8.74871C3.39003 8.58586 2.99185 8.49976 3.02652 8.22318C3.04458 8.07912 3.24296 7.93179 3.62167 7.78119Z" fill="#8F8CAB"/>
</svg>
